<svg viewBox="0 0 900 1294" xmlns="http://www.w3.org/2000/svg" font-family="Arial, sans-serif">
<rect x="0" y="0" width="900" height="1294" fill="white"/>
<text x="450.0" y="35" font-size="22" font-weight="bold" fill="#1F3864" text-anchor="middle">BrightTV Case Study — Planning Flowchart</text>
<rect x="202" y="70" width="10" height="54" fill="#FFD966"/>
<rect x="220" y="70" width="620" height="54" rx="8" fill="#FFD966" stroke="#595959" stroke-width="1.2"/>
<text x="530.0" y="102.0" font-size="12.5" fill="#1F1F1F" text-anchor="middle">Kickoff: CEO objective—grow subscription base</text>
<circle cx="180" cy="97.0" r="14" fill="#1F3864"/>
<text x="180" y="101.0" font-size="12" fill="white" text-anchor="middle" font-weight="bold">1</text>
<line x1="530.0" y1="124" x2="530.0" y2="144" stroke="#7F7F7F" stroke-width="2" marker-end="url(#arrow)"/>
<rect x="202" y="144" width="10" height="54" fill="#FFD966"/>
<rect x="220" y="144" width="620" height="54" rx="8" fill="#FFD966" stroke="#595959" stroke-width="1.2"/>
<text x="530.0" y="169.0" font-size="12.5" fill="#1F1F1F" text-anchor="middle">Define CVM questions (trends, drivers, low-day</text>
<text x="530.0" y="183.0" font-size="12.5" fill="#1F1F1F" text-anchor="middle">content, growth)</text>
<circle cx="180" cy="171.0" r="14" fill="#1F3864"/>
<text x="180" y="175.0" font-size="12" fill="white" text-anchor="middle" font-weight="bold">2</text>
<line x1="530.0" y1="198" x2="530.0" y2="218" stroke="#7F7F7F" stroke-width="2" marker-end="url(#arrow)"/>
<rect x="202" y="218" width="10" height="54" fill="#FFD966"/>
<rect x="220" y="218" width="620" height="54" rx="8" fill="#FFD966" stroke="#595959" stroke-width="1.2"/>
<text x="530.0" y="243.0" font-size="12.5" fill="#1F1F1F" text-anchor="middle">Scope deliverables (SQL, Excel, dashboards,</text>
<text x="530.0" y="257.0" font-size="12.5" fill="#1F1F1F" text-anchor="middle">presentation)</text>
<circle cx="180" cy="245.0" r="14" fill="#1F3864"/>
<text x="180" y="249.0" font-size="12" fill="white" text-anchor="middle" font-weight="bold">3</text>
<line x1="530.0" y1="272" x2="530.0" y2="292" stroke="#7F7F7F" stroke-width="2" marker-end="url(#arrow)"/>
<rect x="202" y="292" width="10" height="54" fill="#9DC3E6"/>
<rect x="220" y="292" width="620" height="54" rx="8" fill="#9DC3E6" stroke="#595959" stroke-width="1.2"/>
<text x="530.0" y="324.0" font-size="12.5" fill="#1F1F1F" text-anchor="middle">Receive raw data (User Profiles + Viewership)</text>
<circle cx="180" cy="319.0" r="14" fill="#1F3864"/>
<text x="180" y="323.0" font-size="12" fill="white" text-anchor="middle" font-weight="bold">4</text>
<line x1="530.0" y1="346" x2="530.0" y2="366" stroke="#7F7F7F" stroke-width="2" marker-end="url(#arrow)"/>
<rect x="202" y="366" width="10" height="54" fill="#9DC3E6"/>
<rect x="220" y="366" width="620" height="54" rx="8" fill="#9DC3E6" stroke="#595959" stroke-width="1.2"/>
<text x="530.0" y="391.0" font-size="12.5" fill="#1F1F1F" text-anchor="middle">Identify data quality issues (dup ID, channel</text>
<text x="530.0" y="405.0" font-size="12.5" fill="#1F1F1F" text-anchor="middle">variants, nulls)</text>
<circle cx="180" cy="393.0" r="14" fill="#1F3864"/>
<text x="180" y="397.0" font-size="12" fill="white" text-anchor="middle" font-weight="bold">5</text>
<line x1="530.0" y1="420" x2="530.0" y2="440" stroke="#7F7F7F" stroke-width="2" marker-end="url(#arrow)"/>
<rect x="202" y="440" width="10" height="54" fill="#9DC3E6"/>
<rect x="220" y="440" width="620" height="54" rx="8" fill="#9DC3E6" stroke="#595959" stroke-width="1.2"/>
<text x="530.0" y="472.0" font-size="12.5" fill="#1F1F1F" text-anchor="middle">Write SQL: clean + transform (Databricks)</text>
<circle cx="180" cy="467.0" r="14" fill="#1F3864"/>
<text x="180" y="471.0" font-size="12" fill="white" text-anchor="middle" font-weight="bold">6</text>
<line x1="530.0" y1="494" x2="530.0" y2="514" stroke="#7F7F7F" stroke-width="2" marker-end="url(#arrow)"/>
<rect x="202" y="514" width="10" height="54" fill="#9DC3E6"/>
<rect x="220" y="514" width="620" height="54" rx="8" fill="#9DC3E6" stroke="#595959" stroke-width="1.2"/>
<text x="530.0" y="539.0" font-size="12.5" fill="#1F1F1F" text-anchor="middle">Build fact table (sessions) + dimension table</text>
<text x="530.0" y="553.0" font-size="12.5" fill="#1F1F1F" text-anchor="middle">(subscribers)</text>
<circle cx="180" cy="541.0" r="14" fill="#1F3864"/>
<text x="180" y="545.0" font-size="12" fill="white" text-anchor="middle" font-weight="bold">7</text>
<line x1="530.0" y1="568" x2="530.0" y2="588" stroke="#7F7F7F" stroke-width="2" marker-end="url(#arrow)"/>
<rect x="202" y="588" width="10" height="54" fill="#A9D18E"/>
<rect x="220" y="588" width="620" height="54" rx="8" fill="#A9D18E" stroke="#595959" stroke-width="1.2"/>
<text x="530.0" y="620.0" font-size="12.5" fill="#1F1F1F" text-anchor="middle">Excel: KPIs, pivots, charts</text>
<circle cx="180" cy="615.0" r="14" fill="#1F3864"/>
<text x="180" y="619.0" font-size="12" fill="white" text-anchor="middle" font-weight="bold">8</text>
<line x1="530.0" y1="642" x2="530.0" y2="662" stroke="#7F7F7F" stroke-width="2" marker-end="url(#arrow)"/>
<rect x="202" y="662" width="10" height="54" fill="#A9D18E"/>
<rect x="220" y="662" width="620" height="54" rx="8" fill="#A9D18E" stroke="#595959" stroke-width="1.2"/>
<text x="530.0" y="694.0" font-size="12.5" fill="#1F1F1F" text-anchor="middle">Power BI dashboard</text>
<circle cx="180" cy="689.0" r="14" fill="#1F3864"/>
<text x="180" y="693.0" font-size="12" fill="white" text-anchor="middle" font-weight="bold">9</text>
<line x1="530.0" y1="716" x2="530.0" y2="736" stroke="#7F7F7F" stroke-width="2" marker-end="url(#arrow)"/>
<rect x="202" y="736" width="10" height="54" fill="#A9D18E"/>
<rect x="220" y="736" width="620" height="54" rx="8" fill="#A9D18E" stroke="#595959" stroke-width="1.2"/>
<text x="530.0" y="768.0" font-size="12.5" fill="#1F1F1F" text-anchor="middle">Looker Studio dashboard</text>
<circle cx="180" cy="763.0" r="14" fill="#1F3864"/>
<text x="180" y="767.0" font-size="12" fill="white" text-anchor="middle" font-weight="bold">10</text>
<line x1="530.0" y1="790" x2="530.0" y2="810" stroke="#7F7F7F" stroke-width="2" marker-end="url(#arrow)"/>
<rect x="202" y="810" width="10" height="54" fill="#A9D18E"/>
<rect x="220" y="810" width="620" height="54" rx="8" fill="#A9D18E" stroke="#595959" stroke-width="1.2"/>
<text x="530.0" y="842.0" font-size="12.5" fill="#1F1F1F" text-anchor="middle">Databricks dashboard</text>
<circle cx="180" cy="837.0" r="14" fill="#1F3864"/>
<text x="180" y="841.0" font-size="12" fill="white" text-anchor="middle" font-weight="bold">11</text>
<line x1="530.0" y1="864" x2="530.0" y2="884" stroke="#7F7F7F" stroke-width="2" marker-end="url(#arrow)"/>
<rect x="202" y="884" width="10" height="54" fill="#A9D18E"/>
<rect x="220" y="884" width="620" height="54" rx="8" fill="#A9D18E" stroke="#595959" stroke-width="1.2"/>
<text x="530.0" y="916.0" font-size="12.5" fill="#1F1F1F" text-anchor="middle">Lovable web dashboard</text>
<circle cx="180" cy="911.0" r="14" fill="#1F3864"/>
<text x="180" y="915.0" font-size="12" fill="white" text-anchor="middle" font-weight="bold">12</text>
<line x1="530.0" y1="938" x2="530.0" y2="958" stroke="#7F7F7F" stroke-width="2" marker-end="url(#arrow)"/>
<rect x="202" y="958" width="10" height="54" fill="#F4B6C2"/>
<rect x="220" y="958" width="620" height="54" rx="8" fill="#F4B6C2" stroke="#595959" stroke-width="1.2"/>
<text x="530.0" y="990.0" font-size="12.5" fill="#1F1F1F" text-anchor="middle">Synthesize insights &amp; recommendations</text>
<circle cx="180" cy="985.0" r="14" fill="#1F3864"/>
<text x="180" y="989.0" font-size="12" fill="white" text-anchor="middle" font-weight="bold">13</text>
<line x1="530.0" y1="1012" x2="530.0" y2="1032" stroke="#7F7F7F" stroke-width="2" marker-end="url(#arrow)"/>
<rect x="202" y="1032" width="10" height="54" fill="#F4B6C2"/>
<rect x="220" y="1032" width="620" height="54" rx="8" fill="#F4B6C2" stroke="#595959" stroke-width="1.2"/>
<text x="530.0" y="1064.0" font-size="12.5" fill="#1F1F1F" text-anchor="middle">Build final presentation</text>
<circle cx="180" cy="1059.0" r="14" fill="#1F3864"/>
<text x="180" y="1063.0" font-size="12" fill="white" text-anchor="middle" font-weight="bold">14</text>
<line x1="530.0" y1="1086" x2="530.0" y2="1106" stroke="#7F7F7F" stroke-width="2" marker-end="url(#arrow)"/>
<rect x="202" y="1106" width="10" height="54" fill="#F4B6C2"/>
<rect x="220" y="1106" width="620" height="54" rx="8" fill="#F4B6C2" stroke="#595959" stroke-width="1.2"/>
<text x="530.0" y="1138.0" font-size="12.5" fill="#1F1F1F" text-anchor="middle">Present to CVM team / CEO</text>
<circle cx="180" cy="1133.0" r="14" fill="#1F3864"/>
<text x="180" y="1137.0" font-size="12" fill="white" text-anchor="middle" font-weight="bold">15</text>
<line x1="530.0" y1="1160" x2="530.0" y2="1180" stroke="#7F7F7F" stroke-width="2" marker-end="url(#arrow)"/>
<rect x="202" y="1180" width="10" height="54" fill="#F4B6C2"/>
<rect x="220" y="1180" width="620" height="54" rx="8" fill="#F4B6C2" stroke="#595959" stroke-width="1.2"/>
<text x="530.0" y="1212.0" font-size="12.5" fill="#1F1F1F" text-anchor="middle">Publish to GitHub portfolio</text>
<circle cx="180" cy="1207.0" r="14" fill="#1F3864"/>
<text x="180" y="1211.0" font-size="12" fill="white" text-anchor="middle" font-weight="bold">16</text>
<text x="40" y="541" font-size="11" fill="#7F7F7F" transform="rotate(-90 40 541)">Steps 8–12 run in parallel from step 7, then converge into step 13</text>
<defs>
<marker id="arrow" markerWidth="8" markerHeight="8" refX="4" refY="4" orient="auto">
<path d="M0,0 L8,4 L0,8 Z" fill="#7F7F7F"/>
</marker>
</defs>
<rect x="220" y="1264" width="14" height="14" fill="#FFD966" stroke="#595959"/>
<text x="240" y="1276" font-size="11" fill="#1F1F1F">Planning</text>
<rect x="350" y="1264" width="14" height="14" fill="#9DC3E6" stroke="#595959"/>
<text x="370" y="1276" font-size="11" fill="#1F1F1F">Data Processing</text>
<rect x="550" y="1264" width="14" height="14" fill="#A9D18E" stroke="#595959"/>
<text x="570" y="1276" font-size="11" fill="#1F1F1F">Analysis &amp; Dashboards</text>
<rect x="810" y="1264" width="14" height="14" fill="#F4B6C2" stroke="#595959"/>
<text x="830" y="1276" font-size="11" fill="#1F1F1F">Delivery</text>
</svg>